<?xml version="1.0" encoding="utf-8"?>
<!-- Generator: Adobe Illustrator 23.0.0, SVG Export Plug-In . SVG Version: 6.00 Build 0)  -->
<svg version="1.1" xmlns="http://www.w3.org/2000/svg" xmlns:xlink="http://www.w3.org/1999/xlink" x="0px" y="0px"
	 viewBox="0 0 320.3 266.09" style="enable-background:new 0 0 320.3 266.09;" xml:space="preserve">
<style type="text/css">
	.st0{fill:#FFFFFF;}
	.st1{fill:#1C1C1C;}
	.st2{fill:none;stroke:#232323;stroke-miterlimit:10;}
	.st3{fill:none;stroke:#232323;stroke-miterlimit:10;stroke-dasharray:10.4597,10.4597;}
	.st4{fill:none;stroke:#232323;stroke-miterlimit:10;stroke-dasharray:8.6159;}
	.st5{fill:none;stroke:#232323;stroke-miterlimit:10;stroke-dasharray:10.3606,10.3606;}
	.st6{fill:none;stroke:#232323;stroke-miterlimit:10;stroke-dasharray:10.5975,10.5975;}
	.st7{fill:none;stroke:#232323;stroke-miterlimit:10;stroke-dasharray:10;}
	.st8{fill:none;stroke:#232323;stroke-miterlimit:10;stroke-dasharray:6;}
	.st9{fill:none;stroke:#232323;stroke-miterlimit:10;stroke-dasharray:5;}
	.st10{fill:none;stroke:#232323;stroke-miterlimit:10;stroke-dasharray:4;}
	.st11{fill:none;stroke:#000000;stroke-width:2;stroke-linecap:round;stroke-miterlimit:10;}
	.st12{fill:none;stroke:#000000;stroke-linecap:round;stroke-miterlimit:10;}
	.st13{fill:none;stroke:#000000;stroke-width:0.75;}
	.st14{fill:none;stroke:#000000;stroke-width:2;stroke-linecap:round;}
	.st15{fill:none;stroke:#000000;stroke-width:3;stroke-linecap:round;stroke-miterlimit:10;}
</style>
<g id="Calque_7">
	<rect x="-30.34" y="-22.21" class="st0" width="380.98" height="310.51"/>
</g>
<g id="Calque_2">
	<polygon class="st1" points="72.2,82.95 57.81,117.22 73.04,153.39 90.39,115.74 86.16,106.64 73.54,137.11 65.64,117.22 
		76.85,92.68 	"/>
	<path class="st1" d="M118.62,78.07l-16.08,38.07l15.23,36.35l16.92-37.21L118.62,78.07z M117.27,135.06l-7.95-20.6l9.31-19.44
		l8.25,17.77L117.27,135.06z"/>
	<polygon class="st1" points="200.99,94.8 191.47,117 194.75,123.25 197.39,117.58 207.23,137.6 203.95,145.99 207.65,153.06 
		217.59,131.82 213.68,123.93 211.35,130.02 201.84,110.56 205.01,102.73 	"/>
	<path class="st1" d="M253.48,105.73l-9.2-21.93l-15.65,34.9l15.65,34.48l3.38-7.61l-6.24-13.85L253.48,105.73z M234.76,119.33
		l9.31-19.88l2.96,6.28l-9.62,19.42L234.76,119.33z"/>
	<polygon class="st1" points="146.74,114.66 163.02,152.5 179.94,115.04 169.35,91.12 162.63,106.34 166.79,114.66 169.64,107.83 
		173.02,114.66 162.71,138.58 153.27,117.06 167.01,85.83 163.34,77.45 	"/>
</g>
<g id="pointillés">
	<g>
		<g>
			<polyline class="st2" points="117.78,153.04 127.3,153.04 129.34,148.48 			"/>
			<line class="st3" x1="133.62" y1="138.94" x2="140.03" y2="124.62"/>
			<line class="st2" x1="142.17" y1="119.85" x2="144.22" y2="115.28"/>
		</g>
	</g>
	<g>
		<polyline class="st2" points="109.32,114.46 119.26,114.46 123.51,105.53 		"/>
	</g>
	<g>
		<line class="st4" x1="119.26" y1="114.46" x2="122.75" y2="122.33"/>
	</g>
	<g>
		<g>
			<polyline class="st2" points="134.7,115.28 144.22,115.28 142.27,110.68 			"/>
			<line class="st5" x1="138.23" y1="101.14" x2="132.16" y2="86.83"/>
			<polyline class="st2" points="130.14,82.06 128.19,77.45 118.68,77.45 			"/>
		</g>
	</g>
	<g>
		<g>
			<polyline class="st2" points="179.84,115.04 189.46,114.98 187.43,119.55 			"/>
			<line class="st6" x1="183.14" y1="129.23" x2="176.69" y2="143.76"/>
			<polyline class="st2" points="174.54,148.61 172.51,153.18 163.05,153.18 			"/>
		</g>
	</g>
	<line class="st7" x1="118.68" y1="77.45" x2="128.19" y2="77.45"/>
	<line class="st7" x1="134.7" y1="115.28" x2="144.22" y2="115.28"/>
	<line class="st7" x1="118.09" y1="153.04" x2="127.3" y2="153.04"/>
	<line class="st7" x1="109.32" y1="114.46" x2="119.26" y2="114.46"/>
	<line class="st2" x1="169.36" y1="90.58" x2="179.09" y2="90.58"/>
	<line class="st2" x1="167.18" y1="85.85" x2="176.91" y2="85.84"/>
	<line class="st2" x1="153.61" y1="117.08" x2="163.34" y2="117.08"/>
	<line class="st2" x1="72.23" y1="82.36" x2="81.96" y2="82.35"/>
	<line class="st2" x1="76.92" y1="92.61" x2="86.65" y2="92.61"/>
	<line class="st2" x1="65.92" y1="117.29" x2="75.65" y2="117.29"/>
	<line class="st2" x1="86.22" y1="106.29" x2="95.96" y2="106.29"/>
	<line class="st2" x1="90.39" y1="115.67" x2="100.12" y2="115.67"/>
	<line class="st2" x1="73.02" y1="153.97" x2="82.76" y2="153.97"/>
	<line class="st2" x1="201.07" y1="94.38" x2="210.8" y2="94.38"/>
	<line class="st2" x1="244.3" y1="83.19" x2="254.04" y2="83.19"/>
	<line class="st2" x1="253.48" y1="105.67" x2="263.21" y2="105.67"/>
	<line class="st2" x1="241.71" y1="131.67" x2="251.44" y2="131.67"/>
	<line class="st2" x1="247.77" y1="145.56" x2="257.5" y2="145.56"/>
	<line class="st2" x1="244.29" y1="153.75" x2="254.02" y2="153.74"/>
	<line class="st2" x1="205.14" y1="102.73" x2="214.87" y2="102.73"/>
	<line class="st2" x1="202.05" y1="110.56" x2="211.78" y2="110.56"/>
	<line class="st2" x1="213.73" y1="123.3" x2="223.46" y2="123.3"/>
	<line class="st2" x1="217.59" y1="131.76" x2="227.33" y2="131.76"/>
	<line class="st2" x1="207.66" y1="153.5" x2="217.4" y2="153.5"/>
	<line class="st2" x1="163.34" y1="76.82" x2="173.07" y2="76.82"/>
	<line class="st8" x1="163.05" y1="153.18" x2="172.28" y2="153.18"/>
	<polyline class="st8" points="81.78,82.36 86.65,92.61 75.65,117.29 78.74,124.56 	"/>
	<polyline class="st8" points="95.67,106.29 99.83,115.67 82.49,153.97 	"/>
	<polyline class="st8" points="165.47,112.01 163.34,117.08 168.06,126.17 	"/>
	<polyline class="st9" points="172.68,76.82 176.54,85.61 174.45,90.58 	"/>
	<line class="st2" x1="178.75" y1="90.37" x2="189.72" y2="114.77"/>
	<polyline class="st9" points="210.51,94.38 214.87,102.73 211.78,110.56 218.28,123.3 	"/>
	<polyline class="st9" points="223.14,123.09 227.33,131.76 217.05,153.74 	"/>
	<line class="st9" x1="194.75" y1="123.68" x2="200.21" y2="123.73"/>
	<polyline class="st8" points="253.69,82.95 263.03,105.7 251.15,131.67 257.32,145.56 	"/>
	<line class="st10" x1="257.12" y1="145.61" x2="253.67" y2="153.92"/>
	<line class="st2" x1="234.76" y1="119.33" x2="240.29" y2="119.33"/>
</g>
<g id="Calque_4">
	<line class="st11" x1="55.33" y1="72.1" x2="55.33" y2="166.01"/>
	<line class="st11" x1="266.45" y1="72.1" x2="266.45" y2="166.01"/>
	<line class="st12" x1="57.81" y1="74.92" x2="264.13" y2="74.92"/>
	<line class="st12" x1="57.81" y1="163.47" x2="264.13" y2="163.47"/>
</g>
<g id="Calque_5">
	<g>
		<path class="st13" d="M65.4,180.3v0.59c0.91-1.13,1.86-1.95,2.84-2.48c0.98-0.53,2.09-0.79,3.33-0.79c1.49,0,2.86,0.39,4.11,1.16
			c1.25,0.77,2.24,1.9,2.97,3.38c0.73,1.48,1.09,3.24,1.09,5.27c0,1.5-0.21,2.87-0.63,4.12c-0.42,1.25-1,2.3-1.73,3.15
			c-0.73,0.85-1.6,1.5-2.6,1.96c-1,0.46-2.07,0.69-3.22,0.69c-1.38,0-2.54-0.28-3.48-0.84c-0.94-0.56-1.83-1.38-2.68-2.46v7.3
			c0,2.14-0.77,3.2-2.32,3.2c-0.91,0-1.51-0.28-1.81-0.83c-0.3-0.55-0.44-1.36-0.44-2.41v-20.97c0-0.93,0.2-1.62,0.6-2.07
			c0.4-0.46,0.95-0.69,1.65-0.69c0.69,0,1.24,0.23,1.67,0.7C65.18,178.75,65.4,179.42,65.4,180.3z M74.88,187.37
			c0-1.28-0.19-2.38-0.58-3.3c-0.39-0.92-0.93-1.63-1.62-2.12c-0.69-0.49-1.46-0.74-2.3-0.74c-1.34,0-2.46,0.53-3.38,1.58
			c-0.92,1.06-1.37,2.61-1.37,4.66c0,1.93,0.45,3.44,1.36,4.51c0.91,1.07,2.04,1.61,3.39,1.61c0.8,0,1.55-0.23,2.23-0.7
			c0.69-0.47,1.23-1.17,1.65-2.11C74.67,189.83,74.88,188.7,74.88,187.37z"/>
		<path class="st13" d="M92.69,194.59c-0.94,0.91-1.85,1.6-2.73,2.06c-0.88,0.46-1.87,0.69-2.96,0.69c-1,0-1.87-0.25-2.63-0.74
			c-0.76-0.49-1.34-1.16-1.75-2c-0.41-0.84-0.61-1.76-0.61-2.74c0-1.33,0.34-2.46,1.01-3.4c0.67-0.94,1.6-1.57,2.78-1.89
			c0.25-0.07,0.86-0.23,1.84-0.48c0.98-0.25,1.82-0.48,2.52-0.69c0.7-0.21,1.46-0.46,2.27-0.76c-0.05-1.28-0.25-2.22-0.62-2.82
			c-0.37-0.6-1.12-0.9-2.27-0.9c-0.99,0-1.73,0.17-2.23,0.52c-0.5,0.34-0.93,0.86-1.28,1.55c-0.36,0.69-0.61,1.14-0.76,1.36
			c-0.15,0.22-0.46,0.33-0.95,0.33c-0.44,0-0.82-0.17-1.13-0.53c-0.32-0.35-0.48-0.8-0.48-1.34c0-0.85,0.24-1.68,0.73-2.49
			c0.48-0.81,1.24-1.47,2.27-1.99c1.03-0.52,2.3-0.78,3.83-0.78c1.71,0,3.05,0.25,4.03,0.76c0.98,0.5,1.67,1.3,2.07,2.39
			c0.4,1.09,0.61,2.54,0.61,4.34c0,1.14,0,2.11-0.01,2.9c0,0.8-0.01,1.68-0.02,2.65c0,0.91,0.12,1.87,0.36,2.86
			c0.24,0.99,0.36,1.63,0.36,1.91c0,0.5-0.19,0.95-0.56,1.36c-0.38,0.41-0.8,0.61-1.28,0.61c-0.4,0-0.79-0.23-1.18-0.7
			C93.54,196.16,93.13,195.48,92.69,194.59z M92.44,187.56c-0.57,0.26-1.4,0.54-2.49,0.83c-1.09,0.29-1.84,0.5-2.26,0.64
			c-0.42,0.14-0.82,0.4-1.2,0.8c-0.38,0.4-0.57,0.95-0.57,1.66c0,0.74,0.22,1.36,0.67,1.88c0.45,0.52,1.03,0.77,1.75,0.77
			c0.77,0,1.48-0.21,2.13-0.63c0.65-0.42,1.13-0.96,1.43-1.63c0.35-0.74,0.53-1.95,0.53-3.63V187.56z"/>
		<path class="st13" d="M104.07,190.32v4.06c0,0.99-0.19,1.72-0.56,2.22c-0.37,0.49-0.84,0.74-1.41,0.74
			c-0.56,0-1.02-0.25-1.38-0.75c-0.36-0.5-0.54-1.23-0.54-2.21v-13.53c0-2.18,0.63-3.27,1.9-3.27c0.65,0,1.11,0.26,1.4,0.77
			c0.29,0.51,0.44,1.26,0.47,2.26c0.47-1,0.94-1.75,1.43-2.26c0.49-0.51,1.14-0.77,1.96-0.77c0.82,0,1.61,0.26,2.38,0.77
			c0.77,0.51,1.15,1.19,1.15,2.03c0,0.59-0.16,1.08-0.49,1.47c-0.33,0.39-0.68,0.58-1.06,0.58c-0.14,0-0.49-0.11-1.03-0.33
			c-0.55-0.22-1.03-0.33-1.45-0.33c-0.57,0-1.04,0.19-1.4,0.56c-0.36,0.37-0.64,0.93-0.84,1.66c-0.2,0.74-0.34,1.61-0.41,2.63
			C104.11,187.63,104.07,188.86,104.07,190.32z"/>
		<path class="st13" d="M114.39,178.01h0.43v-2.92c0-0.78,0.02-1.4,0.05-1.84c0.03-0.44,0.13-0.83,0.28-1.15
			c0.15-0.33,0.37-0.6,0.66-0.81c0.29-0.21,0.6-0.31,0.96-0.31c0.49,0,0.94,0.23,1.34,0.69c0.27,0.31,0.43,0.69,0.51,1.13
			c0.07,0.44,0.11,1.08,0.11,1.9v3.31h1.43c0.55,0,0.97,0.16,1.26,0.49c0.29,0.33,0.43,0.75,0.43,1.25c0,0.65-0.21,1.11-0.62,1.37
			c-0.41,0.26-1,0.39-1.77,0.39h-0.73v8.93c0,0.76,0.02,1.34,0.06,1.75c0.04,0.41,0.16,0.74,0.34,1c0.19,0.26,0.49,0.38,0.9,0.38
			c0.23,0,0.54-0.05,0.93-0.15c0.39-0.1,0.69-0.15,0.91-0.15c0.31,0,0.6,0.16,0.85,0.47c0.25,0.31,0.38,0.7,0.38,1.17
			c0,0.78-0.34,1.38-1.03,1.8s-1.67,0.62-2.95,0.62c-1.22,0-2.14-0.26-2.77-0.77c-0.63-0.51-1.04-1.22-1.23-2.12
			c-0.19-0.9-0.29-2.11-0.29-3.61v-9.33h-0.51c-0.56,0-0.99-0.17-1.28-0.5c-0.29-0.33-0.44-0.75-0.44-1.26
			c0-0.51,0.15-0.93,0.46-1.25C113.35,178.17,113.8,178.01,114.39,178.01z"/>
		<path class="st13" d="M148.03,191.32c0,0.61-0.15,1.25-0.43,1.94c-0.29,0.69-0.73,1.34-1.33,1.97c-0.59,0.62-1.34,1.12-2.25,1.5
			c-0.9,0.38-1.92,0.57-3.05,0.57c-2.4,0-4.28-0.87-5.63-2.63c-1.35-1.75-2.02-4.1-2.02-7.04c0-1.99,0.31-3.76,0.93-5.29
			c0.62-1.53,1.51-2.71,2.68-3.55c1.17-0.84,2.57-1.25,4.19-1.25c1.01,0,1.93,0.18,2.77,0.55c0.84,0.37,1.55,0.84,2.14,1.42
			c0.58,0.58,1.03,1.2,1.34,1.86c0.31,0.66,0.46,1.27,0.46,1.84c0,0.58-0.17,1.07-0.52,1.48c-0.35,0.4-0.77,0.61-1.26,0.61
			c-0.32,0-0.59-0.1-0.81-0.31c-0.21-0.21-0.45-0.54-0.72-1.01c-0.48-0.9-0.97-1.58-1.49-2.03c-0.52-0.45-1.18-0.68-1.97-0.68
			c-1.15,0-2.08,0.56-2.78,1.68c-0.7,1.12-1.05,2.66-1.05,4.6c0,0.91,0.09,1.75,0.27,2.52c0.18,0.77,0.44,1.42,0.78,1.96
			c0.34,0.54,0.76,0.95,1.24,1.23c0.48,0.28,1.02,0.42,1.6,0.42c0.78,0,1.45-0.22,2-0.68c0.56-0.45,1.05-1.14,1.48-2.06
			c0.24-0.55,0.49-0.97,0.77-1.28c0.28-0.31,0.61-0.46,1.01-0.46c0.48,0,0.87,0.23,1.18,0.68
			C147.87,190.33,148.03,190.81,148.03,191.32z"/>
		<path class="st13" d="M156.48,180.34v14.04c0,0.97-0.3,1.71-0.89,2.21s-1.35,0.75-2.26,0.75c-0.91,0-1.65-0.26-2.22-0.77
			c-0.57-0.51-0.86-1.24-0.86-2.19v-13.9c0-0.96,0.29-1.68,0.86-2.17c0.57-0.49,1.31-0.73,2.22-0.73c0.91,0,1.67,0.24,2.26,0.73
			C156.19,178.8,156.48,179.47,156.48,180.34z"/>
		<path class="st13" d="M131.45,180.34v14.04c0,0.97-0.3,1.71-0.89,2.21s-1.35,0.75-2.26,0.75c-0.91,0-1.65-0.26-2.22-0.77
			s-0.86-1.24-0.86-2.19v-13.9c0-0.96,0.29-1.68,0.86-2.17c0.57-0.49,1.31-0.73,2.22-0.73c0.91,0,1.67,0.24,2.26,0.73
			C131.15,178.8,131.45,179.47,131.45,180.34z"/>
		<path class="st13" d="M162.93,180.3v0.59c0.73-1.13,1.49-1.95,2.28-2.48c0.79-0.53,1.68-0.79,2.68-0.79c1.2,0,2.3,0.39,3.31,1.16
			c1.01,0.77,1.8,1.9,2.39,3.38c0.58,1.48,0.88,3.24,0.88,5.27c0,1.5-0.17,2.87-0.51,4.12c-0.34,1.25-0.8,2.3-1.39,3.15
			c-0.59,0.85-1.29,1.5-2.09,1.96c-0.8,0.46-1.67,0.69-2.59,0.69c-1.11,0-2.05-0.28-2.8-0.84c-0.76-0.56-1.48-1.38-2.16-2.46v7.3
			c0,2.14-0.62,3.2-1.87,3.2c-0.73,0-1.22-0.28-1.45-0.83c-0.24-0.55-0.36-1.36-0.36-2.41v-20.97c0-0.93,0.16-1.62,0.48-2.07
			c0.32-0.46,0.76-0.69,1.33-0.69c0.55,0,1,0.23,1.35,0.7C162.75,178.75,162.93,179.42,162.93,180.3z M170.55,187.37
			c0-1.28-0.16-2.38-0.47-3.3c-0.31-0.92-0.75-1.63-1.3-2.12c-0.56-0.49-1.17-0.74-1.85-0.74c-1.07,0-1.98,0.53-2.72,1.58
			c-0.74,1.06-1.1,2.61-1.1,4.66c0,1.93,0.37,3.44,1.1,4.51c0.73,1.07,1.64,1.61,2.72,1.61c0.65,0,1.24-0.23,1.8-0.7
			c0.55-0.47,0.99-1.17,1.33-2.11C170.38,189.83,170.55,188.7,170.55,187.37z"/>
		<path class="st13" d="M187.41,194.59c-0.94,0.91-1.85,1.6-2.73,2.06c-0.88,0.46-1.86,0.69-2.96,0.69c-1,0-1.87-0.25-2.63-0.74
			c-0.76-0.49-1.34-1.16-1.75-2c-0.41-0.84-0.61-1.76-0.61-2.74c0-1.33,0.34-2.46,1.01-3.4c0.67-0.94,1.6-1.57,2.78-1.89
			c0.25-0.07,0.86-0.23,1.84-0.48c0.98-0.25,1.82-0.48,2.52-0.69c0.7-0.21,1.46-0.46,2.27-0.76c-0.05-1.28-0.25-2.22-0.62-2.82
			c-0.37-0.6-1.12-0.9-2.27-0.9c-0.99,0-1.73,0.17-2.23,0.52c-0.5,0.34-0.93,0.86-1.28,1.55c-0.36,0.69-0.61,1.14-0.76,1.36
			c-0.15,0.22-0.46,0.33-0.95,0.33c-0.44,0-0.81-0.17-1.13-0.53c-0.32-0.35-0.48-0.8-0.48-1.34c0-0.85,0.24-1.68,0.73-2.49
			c0.48-0.81,1.24-1.47,2.27-1.99c1.03-0.52,2.3-0.78,3.83-0.78c1.71,0,3.05,0.25,4.03,0.76c0.98,0.5,1.67,1.3,2.07,2.39
			c0.4,1.09,0.61,2.54,0.61,4.34c0,1.14,0,2.11-0.01,2.9c0,0.8-0.01,1.68-0.02,2.65c0,0.91,0.12,1.87,0.36,2.86
			c0.24,0.99,0.36,1.63,0.36,1.91c0,0.5-0.19,0.95-0.56,1.36c-0.38,0.41-0.8,0.61-1.28,0.61c-0.4,0-0.79-0.23-1.18-0.7
			C188.26,196.16,187.85,195.48,187.41,194.59z M187.16,187.56c-0.57,0.26-1.4,0.54-2.49,0.83c-1.09,0.29-1.84,0.5-2.26,0.64
			c-0.42,0.14-0.82,0.4-1.2,0.8c-0.38,0.4-0.57,0.95-0.57,1.66c0,0.74,0.22,1.36,0.67,1.88c0.45,0.52,1.03,0.77,1.75,0.77
			c0.77,0,1.48-0.21,2.13-0.63c0.65-0.42,1.13-0.96,1.43-1.63c0.35-0.74,0.53-1.95,0.53-3.63V187.56z"/>
		<path class="st13" d="M194.41,178.01h0.43v-2.92c0-0.78,0.02-1.4,0.05-1.84c0.03-0.44,0.13-0.83,0.28-1.15
			c0.15-0.33,0.37-0.6,0.66-0.81c0.28-0.21,0.6-0.31,0.95-0.31c0.49,0,0.94,0.23,1.34,0.69c0.27,0.31,0.44,0.69,0.51,1.13
			s0.11,1.08,0.11,1.9v3.31h1.43c0.55,0,0.97,0.16,1.26,0.49c0.29,0.33,0.43,0.75,0.43,1.25c0,0.65-0.21,1.11-0.62,1.37
			c-0.41,0.26-1,0.39-1.77,0.39h-0.73v8.93c0,0.76,0.02,1.34,0.06,1.75s0.16,0.74,0.34,1c0.19,0.26,0.49,0.38,0.91,0.38
			c0.23,0,0.54-0.05,0.93-0.15c0.39-0.1,0.69-0.15,0.91-0.15c0.31,0,0.6,0.16,0.85,0.47c0.25,0.31,0.38,0.7,0.38,1.17
			c0,0.78-0.34,1.38-1.03,1.8c-0.68,0.42-1.67,0.62-2.95,0.62c-1.22,0-2.14-0.26-2.77-0.77c-0.63-0.51-1.04-1.22-1.23-2.12
			c-0.19-0.9-0.29-2.11-0.29-3.61v-9.33h-0.51c-0.56,0-0.99-0.17-1.28-0.5c-0.29-0.33-0.44-0.75-0.44-1.26
			c0-0.51,0.15-0.93,0.46-1.25C193.37,178.17,193.82,178.01,194.41,178.01z"/>
		<path class="st13" d="M211.16,180.34v14.04c0,0.97-0.29,1.71-0.86,2.21c-0.58,0.5-1.31,0.75-2.19,0.75
			c-0.89,0-1.61-0.26-2.16-0.77c-0.55-0.51-0.83-1.24-0.83-2.19v-13.9c0-0.96,0.28-1.68,0.83-2.17c0.55-0.49,1.27-0.73,2.16-0.73
			c0.89,0,1.62,0.24,2.19,0.73C210.87,178.8,211.16,179.47,211.16,180.34z"/>
		<path class="st13" d="M228.67,187.46c0,1.45-0.18,2.78-0.54,4c-0.36,1.22-0.88,2.27-1.57,3.15c-0.68,0.88-1.5,1.55-2.45,2.02
			c-0.95,0.47-2.02,0.7-3.21,0.7c-1.18,0-2.24-0.24-3.18-0.71c-0.94-0.47-1.76-1.15-2.44-2.04c-0.69-0.88-1.21-1.93-1.57-3.13
			c-0.36-1.2-0.53-2.54-0.53-4c0-1.47,0.18-2.82,0.54-4.04c0.36-1.22,0.88-2.27,1.55-3.13c0.67-0.87,1.49-1.53,2.45-2
			c0.96-0.47,2.02-0.7,3.18-0.7c1.18,0,2.25,0.24,3.21,0.71c0.96,0.47,1.78,1.15,2.47,2.03c0.68,0.88,1.2,1.92,1.56,3.13
			C228.49,184.66,228.67,186,228.67,187.46z M224.76,187.46c0-1.98-0.35-3.52-1.05-4.63c-0.7-1.1-1.64-1.66-2.82-1.66
			c-0.76,0-1.43,0.25-2.01,0.74c-0.58,0.49-1.03,1.22-1.34,2.18c-0.31,0.96-0.47,2.08-0.47,3.36c0,1.27,0.15,2.38,0.46,3.33
			c0.31,0.95,0.75,1.68,1.33,2.18c0.58,0.5,1.25,0.76,2.03,0.76c1.18,0,2.12-0.55,2.82-1.66
			C224.41,190.95,224.76,189.41,224.76,187.46z"/>
		<path class="st13" d="M235.26,180.27v0.59c0.68-1.13,1.43-1.95,2.25-2.48c0.81-0.53,1.75-0.79,2.8-0.79
			c1.03,0,1.94,0.28,2.75,0.84c0.81,0.56,1.41,1.35,1.81,2.37c0.26,0.59,0.42,1.23,0.5,1.92c0.08,0.69,0.11,1.57,0.11,2.63v9.04
			c0,0.97-0.18,1.71-0.53,2.21s-0.82,0.75-1.39,0.75c-0.58,0-1.05-0.26-1.41-0.77c-0.36-0.51-0.54-1.24-0.54-2.19v-8.1
			c0-1.6-0.18-2.83-0.53-3.68c-0.36-0.85-1.07-1.27-2.13-1.27c-0.69,0-1.33,0.26-1.9,0.77c-0.57,0.52-0.99,1.23-1.25,2.13
			c-0.19,0.72-0.28,2.08-0.28,4.06v6.09c0,0.99-0.18,1.72-0.55,2.22c-0.37,0.49-0.84,0.74-1.42,0.74c-0.56,0-1.02-0.26-1.38-0.77
			c-0.36-0.51-0.54-1.24-0.54-2.19v-14.04c0-0.93,0.16-1.62,0.48-2.07c0.32-0.46,0.77-0.69,1.33-0.69c0.34,0,0.65,0.1,0.93,0.3
			c0.28,0.2,0.5,0.5,0.66,0.91C235.18,179.19,235.26,179.69,235.26,180.27z"/>
		<path class="st13" d="M261.06,190.98c0,1.34-0.26,2.49-0.78,3.44c-0.52,0.96-1.3,1.68-2.32,2.17c-1.02,0.49-2.26,0.74-3.73,0.74
			c-1.4,0-2.59-0.27-3.59-0.8c-1-0.53-1.73-1.2-2.21-2c-0.48-0.8-0.71-1.6-0.71-2.41c0-0.53,0.15-0.99,0.46-1.37
			c0.3-0.38,0.69-0.57,1.15-0.57c0.41,0,0.72,0.12,0.94,0.37c0.22,0.25,0.43,0.6,0.63,1.05c0.4,0.87,0.88,1.51,1.43,1.94
			c0.56,0.43,1.31,0.64,2.27,0.64c0.78,0,1.42-0.22,1.92-0.65c0.5-0.43,0.75-0.93,0.75-1.49c0-0.85-0.26-1.48-0.78-1.87
			c-0.52-0.39-1.37-0.77-2.56-1.12c-1.34-0.42-2.43-0.85-3.27-1.31c-0.84-0.46-1.51-1.06-2.02-1.81s-0.76-1.67-0.76-2.76
			c0-0.97,0.23-1.89,0.7-2.76c0.47-0.87,1.15-1.56,2.06-2.07c0.91-0.52,2-0.77,3.29-0.77c1.01,0,1.91,0.13,2.72,0.39
			c0.8,0.26,1.47,0.61,2.01,1.05c0.54,0.44,0.94,0.93,1.23,1.46c0.28,0.53,0.42,1.06,0.42,1.57c0,0.56-0.15,1.01-0.45,1.37
			c-0.3,0.36-0.72,0.53-1.28,0.53c-0.4,0-0.74-0.14-1.02-0.43c-0.28-0.28-0.6-0.71-0.96-1.28c-0.29-0.47-0.64-0.85-1.04-1.14
			c-0.4-0.28-0.94-0.43-1.63-0.43c-0.7,0-1.29,0.19-1.75,0.56c-0.47,0.37-0.7,0.84-0.7,1.4c0,0.51,0.17,0.93,0.51,1.25
			c0.34,0.33,0.8,0.6,1.38,0.81c0.58,0.21,1.38,0.47,2.39,0.78c1.21,0.37,2.19,0.81,2.96,1.32c0.76,0.51,1.34,1.11,1.74,1.81
			C260.87,189.3,261.06,190.09,261.06,190.98z"/>
		<path class="st13" d="M129.8,176.02h-2.63c-0.85,0-1.53-0.69-1.53-1.53v-1.98c0-0.85,0.69-1.53,1.53-1.53h2.63
			c0.85,0,1.53,0.69,1.53,1.53v1.98C131.33,175.33,130.65,176.02,129.8,176.02z"/>
		<path class="st13" d="M154.68,176.02h-2.63c-0.85,0-1.53-0.69-1.53-1.53v-1.98c0-0.85,0.69-1.53,1.53-1.53h2.63
			c0.85,0,1.53,0.69,1.53,1.53v1.98C156.22,175.33,155.53,176.02,154.68,176.02z"/>
		<path class="st13" d="M209.45,176.02h-2.63c-0.85,0-1.53-0.69-1.53-1.53v-1.98c0-0.85,0.69-1.53,1.53-1.53h2.63
			c0.85,0,1.53,0.69,1.53,1.53v1.98C210.98,175.33,210.29,176.02,209.45,176.02z"/>
	</g>
</g>
<g id="Calque_6">
	<line class="st14" x1="270.97" y1="164.6" x2="278.3" y2="164.6"/>
	<line class="st14" x1="270.97" y1="156.98" x2="281.68" y2="156.98"/>
	<line class="st14" x1="270.97" y1="149.77" x2="284.22" y2="149.77"/>
	<line class="st14" x1="270.97" y1="143.73" x2="287.89" y2="143.73"/>
	<line class="st14" x1="270.97" y1="136.68" x2="290.14" y2="136.68"/>
	<line class="st14" x1="299.17" y1="149.77" x2="303.8" y2="149.77"/>
	<line class="st14" x1="299.17" y1="142.55" x2="305.94" y2="142.55"/>
	<line class="st14" x1="299.17" y1="135.71" x2="307.55" y2="135.71"/>
	<line class="st14" x1="299.17" y1="130" x2="309.87" y2="130"/>
	<line class="st14" x1="299.17" y1="123.32" x2="311.29" y2="123.32"/>
	<line class="st14" x1="270.97" y1="130.13" x2="293.53" y2="130.13"/>
	<line class="st14" x1="270.97" y1="130.13" x2="278.3" y2="130.13"/>
	<line class="st14" x1="270.97" y1="89.31" x2="281.68" y2="89.31"/>
	<line class="st14" x1="270.97" y1="96.53" x2="284.22" y2="96.53"/>
	<line class="st14" x1="270.97" y1="102.56" x2="287.89" y2="102.56"/>
	<line class="st14" x1="270.97" y1="109.61" x2="290.14" y2="109.61"/>
	<line class="st14" x1="270.97" y1="116.16" x2="293.53" y2="116.16"/>
	<line class="st14" x1="270.97" y1="123.09" x2="296.07" y2="123.09"/>
	<line class="st14" x1="270.97" y1="74.92" x2="276.32" y2="74.92"/>
	<line class="st14" x1="270.97" y1="82.11" x2="279.43" y2="82.11"/>
	<line class="st14" x1="299.17" y1="110" x2="305.94" y2="110"/>
	<line class="st14" x1="299.17" y1="116.84" x2="307.55" y2="116.84"/>
	<line class="st14" x1="299.17" y1="96.37" x2="302.56" y2="96.37"/>
	<line class="st14" x1="299.17" y1="103.18" x2="304.52" y2="103.18"/>
	<line class="st14" x1="50.99" y1="164.6" x2="43.66" y2="164.6"/>
	<line class="st14" x1="50.99" y1="156.98" x2="40.27" y2="156.98"/>
	<line class="st14" x1="50.99" y1="149.77" x2="37.74" y2="149.77"/>
	<line class="st14" x1="50.99" y1="143.73" x2="34.07" y2="143.73"/>
	<line class="st14" x1="50.99" y1="136.68" x2="31.81" y2="136.68"/>
	<line class="st14" x1="22.79" y1="149.77" x2="18.15" y2="149.77"/>
	<line class="st14" x1="22.79" y1="142.55" x2="16.01" y2="142.55"/>
	<line class="st14" x1="22.79" y1="135.71" x2="14.41" y2="135.71"/>
	<line class="st14" x1="22.79" y1="130" x2="12.09" y2="130"/>
	<line class="st14" x1="22.79" y1="123.32" x2="10.66" y2="123.32"/>
	<line class="st14" x1="50.99" y1="130.13" x2="28.43" y2="130.13"/>
	<line class="st14" x1="50.99" y1="130.13" x2="43.66" y2="130.13"/>
	<line class="st14" x1="50.99" y1="89.31" x2="40.27" y2="89.31"/>
	<line class="st14" x1="50.99" y1="96.53" x2="37.74" y2="96.53"/>
	<line class="st14" x1="50.99" y1="102.56" x2="34.07" y2="102.56"/>
	<line class="st14" x1="50.99" y1="109.61" x2="31.81" y2="109.61"/>
	<line class="st14" x1="50.99" y1="116.16" x2="28.43" y2="116.16"/>
	<line class="st14" x1="50.99" y1="123.09" x2="25.89" y2="123.09"/>
	<line class="st14" x1="50.99" y1="74.92" x2="45.63" y2="74.92"/>
	<line class="st14" x1="50.99" y1="82.11" x2="42.53" y2="82.11"/>
	<line class="st14" x1="22.79" y1="110" x2="16.01" y2="110"/>
	<line class="st14" x1="22.79" y1="116.84" x2="14.41" y2="116.84"/>
	<line class="st14" x1="22.79" y1="96.37" x2="19.4" y2="96.37"/>
	<line class="st14" x1="22.79" y1="103.18" x2="17.44" y2="103.18"/>
	<line class="st15" x1="234.76" y1="66.88" x2="237.52" y2="66.88"/>
	<line class="st15" x1="237.52" y1="60.53" x2="241.71" y2="60.53"/>
	<line class="st15" x1="239.62" y1="54.33" x2="246.57" y2="54.33"/>
	<line class="st15" x1="241.05" y1="48.27" x2="251.15" y2="48.27"/>
	<line class="st15" x1="243.09" y1="42.48" x2="255.6" y2="42.48"/>
	<line class="st15" x1="237.52" y1="35.72" x2="250.38" y2="35.72"/>
	<line class="st15" x1="243.09" y1="30.36" x2="252.49" y2="30.36"/>
	<line class="st15" x1="247.03" y1="24.29" x2="254.61" y2="24.29"/>
	<line class="st15" x1="252.49" y1="18.23" x2="256.44" y2="18.23"/>
	<line class="st15" x1="256.44" y1="11.74" x2="259.12" y2="11.74"/>
	<line class="st15" x1="264.91" y1="183.76" x2="267.67" y2="183.76"/>
	<line class="st15" x1="267.67" y1="190.11" x2="271.85" y2="190.11"/>
	<line class="st15" x1="269.76" y1="196.31" x2="276.72" y2="196.31"/>
	<line class="st15" x1="271.2" y1="202.38" x2="281.3" y2="202.38"/>
	<line class="st15" x1="273.24" y1="208.16" x2="285.74" y2="208.16"/>
	<line class="st15" x1="267.67" y1="214.93" x2="280.53" y2="214.93"/>
	<line class="st15" x1="273.24" y1="220.29" x2="282.64" y2="220.29"/>
	<line class="st15" x1="277.18" y1="226.35" x2="284.76" y2="226.35"/>
	<line class="st15" x1="282.64" y1="232.41" x2="286.59" y2="232.41"/>
	<line class="st15" x1="286.59" y1="238.9" x2="289.27" y2="238.9"/>
	<line class="st15" x1="236.41" y1="212.78" x2="244.91" y2="212.78"/>
	<line class="st15" x1="238.17" y1="218.44" x2="250.5" y2="218.44"/>
	<line class="st15" x1="240.66" y1="223.84" x2="255.93" y2="223.84"/>
	<line class="st15" x1="233.86" y1="230.16" x2="249.56" y2="230.16"/>
	<line class="st15" x1="240.66" y1="235.17" x2="252.14" y2="235.17"/>
	<line class="st15" x1="245.47" y1="240.83" x2="254.72" y2="240.83"/>
	<line class="st15" x1="252.14" y1="246.49" x2="256.96" y2="246.49"/>
	<line class="st15" x1="256.96" y1="252.55" x2="260.23" y2="252.55"/>
	<line class="st15" x1="88.52" y1="212.78" x2="80.03" y2="212.78"/>
	<line class="st15" x1="86.77" y1="218.44" x2="74.43" y2="218.44"/>
	<line class="st15" x1="84.28" y1="223.84" x2="69.01" y2="223.84"/>
	<line class="st15" x1="91.08" y1="230.16" x2="75.38" y2="230.16"/>
	<line class="st15" x1="84.28" y1="235.17" x2="72.8" y2="235.17"/>
	<line class="st15" x1="79.47" y1="240.83" x2="70.21" y2="240.83"/>
	<line class="st15" x1="72.8" y1="246.49" x2="67.97" y2="246.49"/>
	<line class="st15" x1="67.97" y1="252.55" x2="64.7" y2="252.55"/>
	<line class="st15" x1="57.81" y1="183.76" x2="55.05" y2="183.76"/>
	<line class="st15" x1="55.05" y1="190.11" x2="50.87" y2="190.11"/>
	<line class="st15" x1="52.96" y1="196.31" x2="46" y2="196.31"/>
	<line class="st15" x1="51.52" y1="202.38" x2="41.42" y2="202.38"/>
	<line class="st15" x1="49.48" y1="208.16" x2="36.98" y2="208.16"/>
	<line class="st15" x1="55.05" y1="214.93" x2="42.2" y2="214.93"/>
	<line class="st15" x1="49.48" y1="220.29" x2="40.08" y2="220.29"/>
	<line class="st15" x1="45.55" y1="226.35" x2="37.97" y2="226.35"/>
	<line class="st15" x1="40.08" y1="232.41" x2="36.13" y2="232.41"/>
	<line class="st15" x1="36.13" y1="238.9" x2="33.45" y2="238.9"/>
	<line class="st15" x1="87.83" y1="66.88" x2="85.07" y2="66.88"/>
	<line class="st15" x1="85.07" y1="60.53" x2="80.89" y2="60.53"/>
	<line class="st15" x1="82.98" y1="54.33" x2="76.02" y2="54.33"/>
	<line class="st15" x1="81.54" y1="48.27" x2="71.44" y2="48.27"/>
	<line class="st15" x1="79.5" y1="42.48" x2="67" y2="42.48"/>
	<line class="st15" x1="85.07" y1="35.72" x2="72.21" y2="35.72"/>
	<line class="st15" x1="79.5" y1="30.36" x2="70.1" y2="30.36"/>
	<line class="st15" x1="75.56" y1="24.29" x2="67.98" y2="24.29"/>
	<line class="st15" x1="70.1" y1="18.23" x2="66.15" y2="18.23"/>
	<line class="st15" x1="66.15" y1="11.74" x2="63.47" y2="11.74"/>
</g>
</svg>
